<?xml version="1.0" encoding="UTF-8"?>
<svg width="146" height="36" viewBox="0 0 146 36" fill="none" xmlns="http://www.w3.org/2000/svg">
  <path d="M38.9507 26.2828V9.32434H42.9485V26.2828H38.9507ZM54.7619 26.2828L47.7684 16.9517V26.2828H43.7706V9.32434H47.7684L54.7619 18.7746V9.32434H58.7597V26.2828H54.7619ZM70.0725 26.5651C67.6443 26.5651 65.576 25.9414 63.8677 24.6938C62.1593 23.4463 61.038 21.7358 60.5039 19.5622L64.2129 18.2555C64.5582 19.5031 65.2059 20.4979 66.156 21.2399C67.106 21.9524 68.4606 22.3085 68.9947 22.3085C69.529 22.3085 70.0919 22.1904 70.6261 21.9541C71.1603 21.7178 71.4669 21.3617 71.5443 20.8869C71.6218 20.2927 71.3928 19.8775 70.8587 19.6416C70.3246 19.4053 69.3939 19.1699 68.0587 18.9336C66.7235 18.6973 65.5445 18.4019 64.5169 18.0458C63.4894 17.6896 62.6359 17.0954 61.9564 16.2631C61.2772 15.4308 60.9373 14.3765 60.9373 13.2036C60.9373 11.6534 61.4326 10.4058 62.4214 9.45061C63.4101 8.49583 64.5891 7.82393 65.9631 7.42812C67.3371 7.03231 68.7883 6.8544 69.1337 6.8544C71.175 6.8544 72.9611 7.37922 74.4901 8.42887C76.019 9.47852 77.0878 10.8839 77.6996 12.6434L73.9906 13.9501C73.6452 12.9363 73.075 12.1629 72.2797 11.6297C71.4833 11.0965 70.4946 10.8312 69.9217 10.8312C69.3488 10.8312 68.85 10.9493 68.4265 11.1857C68.003 11.422 67.7934 11.7492 67.7934 12.1629C67.7934 12.6377 68.0805 13.0142 68.6534 13.2925C69.2264 13.5709 70.1765 13.8371 71.5116 14.0913C72.8469 14.3456 74.0077 14.6507 74.9578 15.0065C75.9079 15.3623 76.7037 15.9565 77.3442 16.7888C77.9846 17.621 78.3106 18.6753 78.3106 19.9617C78.3106 21.3264 77.9073 22.4599 77.0933 23.3754C76.2793 24.2908 75.2324 24.9924 73.9518 25.4592C72.6714 25.926 71.3937 26.1623 70.0725 26.5651ZM80.4683 9.32434H84.4661V18.7746C84.4661 19.7489 84.6758 20.5417 85.0993 21.1553C85.5228 21.7689 86.0765 22.0757 86.7558 22.0757C87.4351 22.0757 88.0057 21.7689 88.4485 21.1553C88.892 20.5417 89.1017 19.7489 89.1017 18.7746V9.32434H93.0995V18.7746C93.0995 20.4465 92.7347 21.8697 92.0167 23.0365C91.2987 24.2034 90.3487 25.0947 89.1791 25.7072C88.0096 26.3198 86.748 26.6266 85.4127 26.6266C84.0775 26.6266 82.8159 26.3198 81.6271 25.7072C80.4382 25.0947 79.4881 24.2034 78.7701 23.0365C78.0522 21.8697 77.6873 20.4465 77.6873 18.7746V9.32434H80.4683ZM104.677 26.5651C103.263 26.5651 101.929 26.2866 100.635 25.7351C99.3416 25.1835 98.1721 24.4127 97.1446 23.4192C96.117 22.4253 95.3021 21.2584 94.7099 19.9228C94.1175 18.5872 93.8208 17.1333 93.8208 15.5637C93.8208 14.0334 94.1175 12.6102 94.7099 11.2746C95.3021 9.93936 96.117 8.7725 97.1252 7.83823C98.1528 6.90347 99.3223 6.14293 100.616 5.5913C101.909 5.04006 103.263 4.76193 104.677 4.76193C106.13 4.76193 107.523 5.04006 108.759 5.5913C110.06 6.14293 111.152 6.90347 112.168 7.83823C113.176 8.7725 113.979 9.93936 114.572 11.2746C115.164 12.6102 115.461 14.0334 115.461 15.5637C115.461 17.1333 115.164 18.5872 114.572 19.9228C113.979 21.2584 113.184 22.4253 112.168 23.4192C111.152 24.4127 110.06 25.1835 108.759 25.7351C107.504 26.2866 106.13 26.5651 104.677 26.5651ZM104.677 22.5885C105.705 22.5885 106.616 22.3801 107.427 21.9248C108.224 21.469 108.913 20.8474 109.389 20.0151C109.865 19.1828 110.097 18.4293 110.097 15.5637C110.097 14.0334 109.865 12.7581 109.389 11.9258C108.913 11.0935 108.243 10.472 107.447 10.0162C106.655 9.56042 105.744 9.33253 104.677 9.33253C103.649 9.33253 102.737 9.56042 101.945 10.0162C101.149 10.472 100.481 11.0935 99.9052 11.9258C99.3297 12.7581 99.0621 14.0334 99.0621 15.5637C99.0621 17.094 99.3297 18.4293 99.9052 19.2616C100.481 20.0939 101.161 20.8474 101.926 21.4031C102.718 22.1156 103.649 22.5885 104.677 22.5885ZM118.097 26.2828V9.32434H121.976V14.1486H127.146V9.32434H131.144V26.2828H127.146V18.0425H121.976V26.2828H118.097Z" fill="#263238"/>
  <path d="M36 3C30.6775 3 27.0266 3 24.3406 3.75072C19.8681 5.02625 16.1517 8.74266 14.8762 13.2151C14.1254 15.9011 14.1254 19.5521 14.1254 26.8746C14.1254 30.5366 14.1254 32.3675 14.4409 33.4746C15.2513 36.2955 17.7045 38.7487 20.5254 39.5591C21.6325 39.8746 23.4621 39.8746 27.1254 39.8746C34.4479 39.8746 38.0977 39.8746 40.7849 39.1238C45.2573 37.8483 48.9738 34.1318 50.2493 29.6594C51 26.9734 51 23.3224 51 18V18C51 12.6775 51 9.02664 50.2493 6.34061C48.9738 1.86823 45.2573 -1.84823 40.7849 -3.12378C38.0988 -3.87451 34.448 -3.87451 28.1254 -3.87451C24.4635 -3.87451 22.6325 -3.87451 21.5254 -3.55903C18.7045 -2.74866 16.2513 -0.295446 15.4409 2.52546C15.1254 3.63211 15.1254 5.46345 15.1254 9.12678V9.1268" stroke="url(#paint0_linear_2132_2181)" stroke-width="6"/>
  <rect x="24" y="15" width="18" height="6" rx="3" fill="#263238"/>
  <rect x="24" y="24" width="12" height="6" rx="3" fill="#263238"/>
  <defs>
    <linearGradient id="paint0_linear_2132_2181" x1="21" y1="0" x2="43.5" y2="47" gradientUnits="userSpaceOnUse">
      <stop stop-color="#9E3DFF"/>
      <stop offset="1" stop-color="#4A21EF"/>
    </linearGradient>
  </defs>
</svg> 